<svg width="133" height="44" viewBox="0 0 133 44" fill="none" xmlns="http://www.w3.org/2000/svg">
<path d="M16.5605 0.687744C19.5208 -0.158765 22.9128 -0.169008 25.9307 0.361572C26.0458 0.38059 26.1616 0.399597 26.2803 0.419189C27.2054 0.577011 28.0852 0.814011 28.9736 1.1145C29.0744 1.14823 29.0749 1.14843 29.1777 1.18286C32.3708 2.25914 35.1825 3.9443 37.5996 6.29126C37.6544 6.34358 37.7092 6.39653 37.7656 6.45044C38.5861 7.23514 39.3287 8.04733 39.9912 8.96997C40.0424 9.04115 40.0938 9.11245 40.1465 9.18579C43.3414 13.6876 44.9847 19.2391 44.1504 24.7659C43.5926 27.9899 42.5226 31.3722 40.5566 34.0549C40.2155 34.5205 39.5446 34.5494 39.1641 34.1155C39.07 34.0082 38.9773 33.8993 38.8848 33.7893C38.1927 32.9745 37.4811 32.1752 36.7148 31.429C36.553 31.2634 36.468 31.2078 36.4268 31.1448C36.3864 31.0828 36.3179 31.015 36.2607 30.968C36.1226 30.8276 36.1225 30.8272 35.9619 30.6331C35.7299 30.359 35.4926 30.104 35.2324 29.8567C34.688 29.3196 34.2357 28.7069 33.7744 28.0989C33.7062 28.01 33.6376 27.9209 33.5674 27.8293C32.0182 25.7617 30.2474 22.6124 30.1445 19.925C30.1403 19.8154 30.0224 19.7451 29.9258 19.7971C28.9078 20.3288 28.0622 20.5678 26.917 20.5969C26.832 20.6007 26.7468 20.6038 26.6592 20.6077C26.0049 20.6102 25.6296 20.4278 25.166 19.969C24.3173 18.9509 24.0432 17.7055 23.8271 16.4299C23.8073 16.3207 23.787 16.2114 23.7666 16.0989C23.6285 15.2083 23.6185 14.3223 23.6182 13.4231C23.6181 13.2997 23.6173 13.1762 23.6172 13.0491C23.6208 12.4313 23.6443 11.8288 23.7246 11.217C23.7282 11.1898 23.7519 11.1692 23.7793 11.1692C23.8065 11.1692 23.8301 11.1891 23.834 11.2161C23.86 11.4036 23.8856 11.592 23.9111 11.7795C23.92 11.8442 23.9283 11.9092 23.9375 11.9758C23.983 12.3142 24.0245 12.6522 24.0537 12.9924C24.1336 13.8935 24.2868 14.7683 24.4785 15.6526C24.5124 15.8127 24.5123 15.8134 24.5469 15.9768C24.8327 17.2476 25.2807 18.534 26.3428 19.345C26.3866 19.3784 26.4337 19.4082 26.4844 19.4299C27.203 19.7374 28.1971 19.4671 28.9043 19.2356C29.9382 18.8652 31.1098 18.2115 31.6992 17.2551C32.3299 15.9003 32.1935 14.7424 31.6924 13.3596C31.3612 12.5089 30.9552 11.7241 30.4268 10.9778C30.362 10.8858 30.2963 10.7943 30.2295 10.6995C28.6415 8.51522 26.6646 7.07932 24.21 6.00513C24.129 5.96791 24.0473 5.93019 23.9639 5.89185C21.7787 4.93797 18.8173 4.61772 16.5576 5.43091C15.468 5.86561 14.5921 6.48159 13.8213 7.36255C12.3498 9.03224 10.3121 9.35119 8.18262 9.53638C7.38314 9.60927 6.60182 9.72344 5.95801 10.217C5.88162 10.2757 5.81802 10.3497 5.76953 10.4329C5.32219 11.2004 5.25644 12.0345 5.43359 12.9153C5.47289 13.0673 5.51468 13.2187 5.55859 13.3694C5.59015 13.4812 5.62179 13.5931 5.6543 13.7083C5.99888 14.8668 6.51053 15.7891 7.56738 16.4299C8.33474 16.841 9.13593 17.1787 9.94629 17.4944C11.8803 18.2545 13.2538 19.4018 14.0928 21.3176C15.2996 24.265 14.3011 27.8434 13.7051 30.8401C13.4654 32.0555 13.2727 33.2782 13.1152 34.5071C13.1069 34.5718 13.0984 34.6367 13.0898 34.7034C13.0293 35.2037 13.0037 35.6957 13.0029 36.1995C13.0026 36.2757 13.0023 36.3524 13.002 36.4309C13.0015 36.5912 13.001 36.752 13.001 36.9124C13.0008 37.1532 12.9999 37.3942 12.998 37.635C12.994 38.8175 13.0986 39.9248 13.3926 41.0725C13.3983 41.0949 13.4014 41.1187 13.4014 41.1418C13.4016 41.3187 13.5673 41.4486 13.7383 41.4036C16.1886 40.7555 18.3542 39.639 20.1924 37.8547C20.2933 37.7627 20.2935 37.7622 20.3965 37.6682C20.8912 37.2036 21.2732 36.6837 21.5986 36.0901C21.6175 36.0558 21.6269 36.0169 21.627 35.9778C21.627 35.8959 21.5847 35.819 21.5146 35.7766C21.3389 35.6702 21.1619 35.5699 20.9814 35.47C19.6763 34.7136 18.6643 33.7287 18.1201 32.2981C18.0983 32.2406 18.0823 32.1802 18.0732 32.1194C17.8995 30.9495 18.1465 30.0699 18.7578 29.0549C18.8817 28.826 18.9991 28.594 19.1162 28.3616C19.1689 28.2606 19.2221 28.1599 19.2764 28.0559C19.6492 27.2178 19.7944 26.36 19.9238 25.4563C19.9407 25.3422 19.9572 25.2281 19.9746 25.1106C20.0285 24.7465 20.4536 24.5975 20.6504 24.9084C20.7185 25.016 20.7832 25.1311 20.8486 25.2581C21.3347 26.2245 21.3732 26.3018 22.0967 26.8088C22.23 26.9023 22.3854 26.9639 22.5479 26.9749C23.0991 27.0119 23.6392 26.952 24.1914 26.8811C24.6205 26.8445 25.0411 26.8805 25.4658 26.9299C25.5748 26.9425 25.6815 26.8914 25.7393 26.7981C26.9694 24.8148 26.9901 24.7816 27.4395 24.2971C27.4538 24.2818 27.4742 24.2727 27.4951 24.2727C27.5309 24.2728 27.562 24.2982 27.5693 24.3333C28.5714 29.1216 29.3224 33.9235 29.2988 38.8284C29.2973 39.1474 29.2968 39.4664 29.2969 39.7854C29.2968 40.0964 29.2957 40.408 29.2949 40.719C29.2948 40.8318 29.295 40.9446 29.2949 41.0608C29.2927 41.4502 29.2791 41.8323 29.248 42.2151C29.2174 42.592 28.9576 42.9092 28.5957 43.0188C27.1904 43.4443 25.7673 43.6702 24.3057 43.8801C24.143 43.9061 24.1424 43.9064 23.9766 43.9329C23.6136 43.9788 23.2559 43.993 22.8906 43.9954C22.8211 43.996 22.7514 43.9966 22.6797 43.9973C21.1301 44.0089 19.6126 43.9989 18.0879 43.6887C17.9465 43.6603 17.9461 43.6601 17.8018 43.6311C14.3665 42.9201 11.1488 41.4133 8.42871 39.1936C8.33356 39.1179 8.23769 39.0421 8.13965 38.9641C6.75468 37.844 5.41528 36.5571 4.41113 35.0813C4.37144 35.0231 4.3319 34.9645 4.29102 34.9045C3.02213 33.0234 2.16252 30.9989 2.56152 28.6926C2.82017 27.7417 3.38792 26.9219 4.21973 26.3772C4.7358 26.1112 5.15473 26.0374 5.73242 26.0422C5.80812 26.0428 5.88392 26.0436 5.96191 26.0442C6.68006 26.066 7.20263 26.2394 7.74219 26.7258C8.17019 27.185 8.4374 27.6911 8.46387 28.3264C8.43622 29.0299 8.2286 29.6359 7.73535 30.1331C7.68809 30.1807 7.63415 30.2214 7.57617 30.2551C7.16238 30.496 6.77086 30.6256 6.31348 30.6106C6.13213 30.6046 5.96011 30.5278 5.8252 30.4065C5.7361 30.3263 5.68863 30.2683 5.55859 30.1077C5.52295 30.072 5.4872 30.0363 5.45117 30.0002C5.39762 29.9467 5.32475 29.9164 5.24902 29.9163C5.10026 29.9163 4.97391 30.0303 4.96973 30.179C4.95591 30.684 5.04623 31.0951 5.36719 31.5422C5.83924 32.0577 6.31495 32.3036 7.01758 32.343C7.83289 32.321 8.62117 31.923 9.19336 31.3508C10.1166 30.1539 10.2919 28.7983 10.1494 27.3333C9.94194 26.2021 9.27516 25.2166 8.33301 24.5598C7.138 23.891 5.68152 23.7653 4.36719 24.1282C3.32098 24.456 2.1996 24.979 1.63672 25.9729C1.39313 26.4471 1.1713 26.9329 0.99707 27.4368C0.97902 27.489 0.930242 27.5247 0.875 27.5247C0.816796 27.5246 0.765609 27.4853 0.750977 27.429C-0.00402704 24.5174 -0.195769 21.6205 0.203125 18.6301C0.212342 18.5606 0.220973 18.4908 0.230469 18.4192C0.682276 15.183 2.00938 11.9858 3.93262 9.35181C3.97073 9.29948 4.00956 9.24752 4.04883 9.1936C5.18564 7.64809 6.4404 6.23783 7.9502 5.0481C8.04456 4.97233 8.1391 4.89666 8.23633 4.8186C10.6692 2.8984 13.3941 1.59469 16.3672 0.744385C16.431 0.725736 16.4948 0.706956 16.5605 0.687744ZM22.1436 32.4241C22.0444 32.4243 21.9583 32.4935 21.9355 32.5901C21.9221 32.6471 21.9322 32.7071 21.9658 32.7551C21.9969 32.7994 22.0182 32.8229 22.0898 32.8977C22.1246 32.934 22.1587 32.9689 22.1924 33.0042C22.3019 33.1421 22.4328 33.2303 22.2734 33.4417C22.1319 33.6292 21.8945 33.5517 21.6914 33.5608C21.6473 33.563 21.6154 33.6016 21.6152 33.6458C21.6152 33.6773 21.6316 33.707 21.6582 33.7239C21.9444 33.9058 22.2073 34.0383 22.5498 34.05C22.9001 34.0321 23.1744 33.9161 23.4209 33.6809C23.4668 33.637 23.4373 33.5629 23.374 33.5579C23.3061 33.5524 23.2398 33.5466 23.1738 33.5413C23.0274 33.5298 22.81 33.5605 22.751 33.4417C22.7399 33.4193 22.7327 33.3986 22.7275 33.3792C22.6857 33.221 22.8467 33.0898 22.9502 32.9631C22.9911 32.904 22.9913 32.9037 23.0312 32.8459C23.0951 32.756 23.11 32.7348 23.1387 32.678C23.159 32.6378 23.1619 32.5901 23.1484 32.5471C23.1253 32.4736 23.0575 32.4242 22.9805 32.4241H22.1436ZM25.5625 30.3333C24.9344 30.1657 24.3795 30.2033 23.9307 30.6614C23.8598 30.7338 23.8189 30.8302 23.8076 30.9309C23.7994 31.0047 23.7979 31.0488 23.8037 31.1038C23.8136 31.1973 23.8844 31.2742 23.9736 31.304C24.061 31.3329 24.1559 31.3116 24.2246 31.2502C24.3089 31.1747 24.3554 31.1376 24.458 31.0637C24.546 31.0004 24.6472 30.9556 24.7549 30.9426C25.0646 30.9054 25.3222 30.95 25.6201 31.1057C25.6532 31.1287 25.6852 31.1494 25.7158 31.1682C25.9525 31.3134 26.2319 31.1347 26.168 30.8645C26.1468 30.7752 26.0849 30.6492 26.0146 30.5901C25.8874 30.4832 25.8418 30.4495 25.7637 30.4094C25.6998 30.3766 25.6318 30.3518 25.5625 30.3333ZM20.4941 30.0618C20.1223 30.0661 19.8114 30.1682 19.5215 30.4768C19.4572 30.5454 19.4209 30.6352 19.4111 30.7288C19.3973 30.8625 19.3969 30.9184 19.4092 31.0227C19.4184 31.101 19.4866 31.1594 19.5654 31.1594C19.6001 31.1593 19.6336 31.1474 19.6611 31.1262C19.8052 31.0156 19.8618 30.9732 19.9678 30.9084C20.1141 30.8191 20.2799 30.7605 20.4512 30.7532C20.685 30.7432 20.8663 30.7791 21.1191 30.9143C21.2638 31.012 21.3792 31.0702 21.5176 31.1116C21.6322 31.1458 21.7481 31.0719 21.7822 30.9573C21.786 30.9444 21.7895 30.9315 21.791 30.9182C21.8018 30.8255 21.8075 30.768 21.8047 30.7239C21.7951 30.577 21.65 30.4809 21.5312 30.3938C21.2466 30.1537 20.8665 30.0575 20.4941 30.0618ZM17.0869 9.28149C17.6065 9.31024 18.1111 9.5626 18.4863 9.9231C18.5876 10.0204 18.6946 10.1436 18.8057 10.3098C18.9019 10.454 18.9677 10.6321 18.9248 10.8C18.9201 10.8185 18.9142 10.8357 18.9062 10.8518C18.8351 10.996 18.6774 11.0718 18.5166 11.0706C18.3627 11.0692 18.2062 10.9853 18.0938 10.8801C18.031 10.8214 17.9884 10.7781 17.9248 10.7092C17.8345 10.6114 17.7365 10.5184 17.6182 10.4573C17.3835 10.3362 17.2155 10.3402 16.8877 10.3391C16.7795 10.3375 16.6711 10.3359 16.5596 10.3342C16.295 10.3649 16.1713 10.4214 16.0039 10.552C15.9197 10.6176 15.7863 10.6639 15.6797 10.6682C15.4877 10.6758 15.3349 10.5451 15.3164 10.3538C15.3162 10.3521 15.3156 10.3505 15.3154 10.3489C15.3051 10.2384 15.3351 10.1266 15.4023 10.0383C15.8444 9.45867 16.4273 9.24508 17.0869 9.28149Z" fill="#FFFFFF"/>
<path d="M48.3657 16.7855H51.8702V20.041L51.7376 20.4953V23.2965L51.8702 24.1293V30.6972H48.3657V16.7855ZM50.7147 22.1798C50.9041 21.0189 51.264 20.0158 51.7944 19.1703C52.3248 18.3249 52.9941 17.6688 53.8024 17.2019C54.6232 16.7224 55.5325 16.4827 56.5302 16.4827C57.591 16.4827 58.5192 16.7224 59.3148 17.2019C60.123 17.6814 60.7545 18.3502 61.2091 19.2082C61.6637 20.0536 61.891 21.0442 61.891 22.1798C61.891 23.3155 61.6637 24.3123 61.2091 25.1703C60.7545 26.0158 60.123 26.6782 59.3148 27.1577C58.5192 27.6372 57.591 27.877 56.5302 27.877C55.5199 27.877 54.6106 27.6435 53.8024 27.1767C53.0068 26.6972 52.3374 26.0347 51.7944 25.1893C51.264 24.3312 50.9041 23.3281 50.7147 22.1798ZM58.3298 22.1798C58.3298 21.5994 58.2098 21.0883 57.9698 20.6467C57.7299 20.1924 57.3952 19.8391 56.9659 19.5868C56.5491 19.3218 56.0629 19.1893 55.5072 19.1893C54.9516 19.1893 54.4212 19.3218 53.916 19.5868C53.4235 19.8391 52.9878 20.1924 52.609 20.6467C52.2427 21.0883 51.9586 21.5994 51.7565 22.1798C51.9586 22.7603 52.2427 23.2776 52.609 23.7319C52.9878 24.1735 53.4235 24.5268 53.916 24.7918C54.4212 25.0442 54.9516 25.1703 55.5072 25.1703C56.0629 25.1703 56.5491 25.0442 56.9659 24.7918C57.3952 24.5268 57.7299 24.1735 57.9698 23.7319C58.2098 23.2776 58.3298 22.7603 58.3298 22.1798Z" fill="#FFFFFF"/>
<path d="M73.4769 27.5741L73.0033 23.6562L73.5148 22.1798L73.0033 20.7224L73.4769 16.7855H77.1329L76.4699 22.1798L77.1329 27.5741H73.4769ZM74.3483 22.1798C74.1589 23.3281 73.7989 24.3312 73.2685 25.1893C72.7381 26.0347 72.0688 26.6972 71.2606 27.1767C70.4523 27.6435 69.5431 27.877 68.5328 27.877C67.472 27.877 66.5375 27.6372 65.7292 27.1577C64.9336 26.6782 64.3085 26.0158 63.8539 25.1703C63.3992 24.3123 63.1719 23.3155 63.1719 22.1798C63.1719 21.0442 63.3992 20.0536 63.8539 19.2082C64.3085 18.3502 64.9336 17.6814 65.7292 17.2019C66.5375 16.7224 67.472 16.4827 68.5328 16.4827C69.5431 16.4827 70.4523 16.7224 71.2606 17.2019C72.0688 17.6688 72.7381 18.3249 73.2685 19.1703C73.8116 20.0158 74.1715 21.0189 74.3483 22.1798ZM66.7332 22.1798C66.7332 22.7603 66.8532 23.2776 67.0931 23.7319C67.3331 24.1735 67.6614 24.5268 68.0782 24.7918C68.5075 25.0442 69 25.1703 69.5557 25.1703C70.1114 25.1703 70.6355 25.0442 71.128 24.7918C71.6331 24.5268 72.0751 24.1735 72.454 23.7319C72.8329 23.2776 73.117 22.7603 73.3064 22.1798C73.117 21.5994 72.8329 21.0883 72.454 20.6467C72.0751 20.1924 71.6331 19.8391 71.128 19.5868C70.6355 19.3218 70.1114 19.1893 69.5557 19.1893C69 19.1893 68.5075 19.3218 68.0782 19.5868C67.6614 19.8391 67.3331 20.1924 67.0931 20.6467C66.8532 21.0883 66.7332 21.5994 66.7332 22.1798Z" fill="#FFFFFF"/>
<path d="M93.6968 25.6246H92.5792L95.7805 16.7855H99.3039L95.1933 27.5741H91.5941L88.1086 18.4511H89.321L85.7786 27.5741H82.1795L78.0878 16.7855H81.6301L84.8504 25.6246H83.6949L87.0289 16.7855H90.4197L93.6968 25.6246Z" fill="#FFFFFF"/>
<path d="M100.005 27.5741V25.1136L107.696 18.8107L110.121 19.3407H100.062V16.7855H111.447V19.2461L103.775 25.5489L101.71 25.0189H111.485V27.5741H100.005Z" fill="#FFFFFF"/>
<path d="M113.353 13H116.857V27.5741H113.353V13Z" fill="#FFFFFF"/>
<path d="M122.421 31C121.663 31 120.987 30.9054 120.394 30.7161C119.813 30.5268 119.245 30.2429 118.689 29.8644V27.3849C119.257 27.7508 119.788 28.0095 120.28 28.1609C120.785 28.3249 121.335 28.4069 121.928 28.4069C122.459 28.4069 122.919 28.2934 123.311 28.0662C123.715 27.8391 124.05 27.4227 124.315 26.817L128.634 16.7855H132.366L127.081 27.9148C126.727 28.6719 126.304 29.2776 125.811 29.7319C125.319 30.1861 124.782 30.5079 124.201 30.6972C123.633 30.8991 123.039 31 122.421 31ZM122.837 26.7224L118.158 16.7855H122.023L126.228 26.7224H122.837Z" fill="#FFFFFF"/>
</svg>
