<svg width="160" height="135" viewBox="0 0 160 135" fill="none" xmlns="http://www.w3.org/2000/svg">
<path d="M69.0859 1.31152C74.7375 -0.304582 81.2131 -0.323556 86.9746 0.689453C87.1948 0.725816 87.4157 0.76234 87.6426 0.799805C89.4089 1.10113 91.0878 1.55321 92.7842 2.12695C92.9766 2.19135 92.9764 2.19208 93.1729 2.25781C99.2691 4.31258 104.637 7.52993 109.252 12.0107C109.357 12.1106 109.462 12.2106 109.569 12.3135C111.136 13.8114 112.552 15.3618 113.816 17.123C113.914 17.2591 114.013 17.395 114.113 17.5352C120.213 26.1295 123.35 36.7281 121.758 47.2793C120.639 53.7473 118.44 60.5494 114.311 65.7842C113.953 66.2373 113.282 66.2667 112.888 65.8457C112.481 65.4123 112.091 64.966 111.705 64.5068C110.384 62.9509 109.026 61.4239 107.562 59.999C107.254 59.6832 107.091 59.577 107.013 59.457C106.935 59.3389 106.804 59.2099 106.695 59.1201C106.432 58.8521 106.431 58.8519 106.125 58.4814C105.682 57.9581 105.229 57.4694 104.732 56.9971C103.693 55.9717 102.829 54.8033 101.948 53.6426C101.818 53.4727 101.687 53.302 101.553 53.127C98.5953 49.1796 95.214 43.1684 95.0176 38.0381C95.0096 37.8289 94.7849 37.6948 94.6006 37.7939C92.6572 38.8088 91.0446 39.2646 88.8584 39.3203C88.6958 39.3275 88.5328 39.3344 88.3652 39.3418C87.1161 39.3467 86.3998 38.9971 85.5146 38.1211C83.8946 36.1774 83.3704 33.8004 82.958 31.3652C82.9201 31.1569 82.8818 30.9481 82.8428 30.7334C82.5791 29.0332 82.5593 27.3416 82.5586 25.625C82.5584 25.3892 82.5578 25.1531 82.5576 24.9102C82.5646 23.7305 82.6093 22.5812 82.7627 21.4131C82.7695 21.3612 82.8148 21.3223 82.8672 21.3223C82.9193 21.3225 82.9636 21.3615 82.9707 21.4131C83.0202 21.7707 83.0694 22.1287 83.1182 22.4863C83.1351 22.6098 83.1515 22.7341 83.1689 22.8613C83.2558 23.5072 83.3348 24.1524 83.3906 24.8018C83.5432 26.5225 83.836 28.1933 84.2021 29.8818C84.2668 30.1876 84.2671 30.1883 84.333 30.5C84.884 32.95 85.7493 35.4322 87.8203 36.9775C87.8644 37.0104 87.912 37.0394 87.9619 37.0625C89.3387 37.6978 91.2783 37.1721 92.6514 36.7227C94.6253 36.0156 96.8632 34.7665 97.9883 32.9404C99.1922 30.3538 98.9306 28.1431 97.9736 25.5029C97.3414 23.8789 96.5656 22.3818 95.5566 20.957C95.433 20.7814 95.309 20.6057 95.1816 20.4248C92.1498 16.2547 88.375 13.5136 83.6885 11.4629C83.5338 11.3918 83.379 11.3203 83.2197 11.2471C79.0481 9.42597 73.3952 8.81483 69.0811 10.3672C67.0006 11.1971 65.3282 12.3737 63.8564 14.0557C61.047 17.2434 57.1555 17.8516 53.0898 18.2051C51.5205 18.3482 49.9895 18.5753 48.7412 19.5869C48.6664 19.6476 48.603 19.7215 48.5527 19.8037C47.6379 21.3001 47.4959 22.9304 47.8428 24.6553C47.9178 24.9455 47.9982 25.2347 48.082 25.5225C48.1422 25.7357 48.2026 25.9492 48.2646 26.1689C48.9225 28.3807 49.8992 30.1417 51.917 31.3652C53.3821 32.15 54.9118 32.7938 56.459 33.3965C60.1513 34.8476 62.7722 37.039 64.374 40.6963C66.6781 46.323 64.7727 53.1541 63.6348 58.875C63.1772 61.1955 62.8075 63.5299 62.5068 65.876C62.491 65.9995 62.4753 66.1237 62.459 66.251C62.3435 67.2064 62.2954 68.1465 62.2939 69.1084C62.2933 69.2536 62.2926 69.3992 62.292 69.5488C62.2911 69.8548 62.291 70.1618 62.291 70.4678C62.2906 70.9275 62.2867 71.3879 62.2832 71.8477C62.2754 74.1053 62.4767 76.2198 63.0381 78.4111C63.049 78.4538 63.0547 78.498 63.0547 78.542C63.0547 78.8799 63.3716 79.1293 63.6982 79.043C68.3764 77.8058 72.5102 75.6731 76.0195 72.2666C76.2118 72.0913 76.2127 72.0913 76.4092 71.9121C77.3536 71.0251 78.0819 70.0318 78.7031 68.8984C78.739 68.8329 78.7577 68.7593 78.7578 68.6846C78.7578 68.5285 78.6773 68.3828 78.5439 68.3018C78.2082 68.0983 77.8703 67.9049 77.5254 67.7139C75.01 66.2561 73.0657 64.3548 72.0342 61.5811C72.0128 61.5235 71.9968 61.463 71.9873 61.4023C71.6311 59.1269 72.0986 57.4296 73.2803 55.4678C73.5167 55.0309 73.7414 54.5882 73.9648 54.1445C74.0655 53.9516 74.1668 53.7583 74.2705 53.5596C74.9823 51.9597 75.2587 50.3228 75.5059 48.5977C75.5382 48.3797 75.5702 48.1611 75.6035 47.9365C75.7065 47.2421 76.5184 46.9583 76.8936 47.5518C77.0235 47.7573 77.1466 47.9773 77.2715 48.2197C78.2392 50.1438 78.2777 50.2225 79.8398 51.3105C79.9734 51.4035 80.129 51.4634 80.291 51.4785C81.4222 51.5834 82.5248 51.4633 83.6543 51.3184C84.4735 51.2484 85.2752 51.3171 86.0859 51.4111C86.2943 51.4352 86.498 51.3366 86.6084 51.1582C88.956 47.3732 88.9951 47.3102 89.8525 46.3857C89.8802 46.356 89.9194 46.338 89.96 46.3379C90.0291 46.3379 90.0892 46.3865 90.1035 46.4541C92.0165 55.595 93.4482 64.7616 93.4033 74.125C93.4005 74.7344 93.3993 75.3447 93.3994 75.9541C93.3994 76.5476 93.3981 77.1418 93.3965 77.7354C93.3963 77.9508 93.3957 78.1667 93.3955 78.3887C93.3902 79.3211 93.3518 80.2307 93.2559 81.1494C93.2166 81.5255 92.9585 81.8418 92.5986 81.958C89.7412 82.8804 86.8479 83.3429 83.8711 83.7705C83.5606 83.8201 83.5598 83.8205 83.2432 83.8711C82.5503 83.9588 81.8681 83.9857 81.1709 83.9902C81.0378 83.9915 80.9047 83.9928 80.7676 83.9941C77.8091 84.0162 74.9128 83.9976 72.002 83.4053C71.7314 83.351 71.731 83.3513 71.4551 83.2959C64.8967 81.9385 58.7536 79.0611 53.5605 74.8232C53.379 74.6788 53.1968 74.5345 53.0098 74.3857C50.3654 72.2471 47.8078 69.7894 45.8906 66.9717C45.8149 66.8607 45.7392 66.7491 45.6611 66.6348C43.2388 63.0435 41.5976 59.1782 42.3594 54.7754C42.8532 52.9601 43.9384 51.3952 45.5264 50.3555C46.5114 49.8479 47.3104 49.7076 48.4131 49.7168C48.5577 49.7178 48.7026 49.7187 48.8516 49.7197C50.2225 49.7614 51.22 50.092 52.25 51.0205C53.0673 51.8971 53.5783 52.8632 53.6289 54.0762C53.575 55.45 53.1616 56.6286 52.1729 57.5898C52.1247 57.6367 52.0703 57.6775 52.0127 57.7119C51.118 58.2466 50.2843 58.5149 49.2705 58.4229C49.0898 58.4064 48.9205 58.3293 48.7812 58.2129C48.4603 57.9444 48.4085 57.8798 48.082 57.4766C48.0141 57.4086 47.9456 57.3411 47.877 57.2725C47.7744 57.1699 47.6353 57.1114 47.4902 57.1113C47.2056 57.1113 46.9649 57.3298 46.957 57.6143C46.9311 58.5781 47.1042 59.3624 47.7168 60.2158C48.618 61.2 49.5257 61.6698 50.8672 61.7451C52.4236 61.7031 53.9282 60.9428 55.0205 59.8506C56.783 57.5657 57.1187 54.9784 56.8467 52.1816C56.4507 50.0217 55.177 48.1398 53.3779 46.8857C51.0964 45.6089 48.316 45.3696 45.8066 46.0625C43.8094 46.6883 41.6694 47.6866 40.5947 49.584C40.1296 50.4895 39.7067 51.4177 39.374 52.3799C39.3396 52.4795 39.246 52.5469 39.1406 52.5469C39.0295 52.5468 38.9322 52.4719 38.9043 52.3643C37.4627 46.8056 37.0949 41.2746 37.8564 35.5654C37.8741 35.4326 37.892 35.299 37.9102 35.1621C38.7728 28.9842 41.307 22.8819 44.9785 17.8535C45.0512 17.7537 45.1243 17.6536 45.1992 17.5508C47.3695 14.6003 49.7651 11.908 52.6475 9.63672C52.8276 9.49212 53.0078 9.34722 53.1934 9.19824C57.8379 5.53246 63.0399 3.04322 68.7158 1.41992C68.8379 1.38423 68.9601 1.3483 69.0859 1.31152ZM79.7412 61.8984C79.5517 61.8986 79.3872 62.0314 79.3438 62.2158C79.3183 62.3245 79.3365 62.4388 79.4004 62.5303C79.4599 62.6152 79.5018 62.6588 79.6387 62.8018C79.7052 62.8712 79.7704 62.9394 79.835 63.0068C80.0441 63.2701 80.2927 63.4382 79.9883 63.8418C79.718 64.1999 79.2656 64.051 78.8779 64.0684C78.7934 64.0723 78.7337 64.1469 78.7334 64.2314C78.7334 64.2916 78.7637 64.3476 78.8145 64.3799C79.3609 64.7273 79.8627 64.9805 80.5166 65.0029C81.1851 64.9686 81.7093 64.7476 82.1797 64.2988C82.2674 64.2148 82.2101 64.0717 82.0889 64.0625C81.9592 64.052 81.8329 64.0414 81.707 64.0312C81.4275 64.0094 81.0139 64.0687 80.9014 63.8418C80.8799 63.7985 80.8644 63.7582 80.8545 63.7207C80.7754 63.4191 81.0829 63.1694 81.2803 62.9277C81.3586 62.8146 81.3596 62.8143 81.4365 62.7031C81.5581 62.5319 81.586 62.492 81.6406 62.3838C81.6793 62.307 81.6858 62.2158 81.6602 62.1338C81.616 61.9933 81.4852 61.8985 81.3379 61.8984H79.7412ZM86.2725 57.9062C85.0734 57.5864 84.0141 57.6588 83.1572 58.5332C83.0219 58.6715 82.9434 58.8555 82.9219 59.0479C82.9062 59.189 82.904 59.2737 82.915 59.3789C82.934 59.5573 83.068 59.703 83.2383 59.7598C83.4056 59.8154 83.5874 59.7749 83.7188 59.6572C83.8796 59.5131 83.9682 59.4427 84.1641 59.3018C84.3321 59.1809 84.5249 59.0941 84.7305 59.0693C85.322 58.9982 85.8138 59.0844 86.3828 59.3818C86.4461 59.4258 86.5069 59.465 86.5654 59.501C87.0173 59.7785 87.55 59.4369 87.4277 58.9209C87.3873 58.7505 87.2697 58.5102 87.1357 58.3975C86.8926 58.1932 86.8055 58.1284 86.6562 58.0518C86.5344 57.9892 86.4048 57.9416 86.2725 57.9062ZM76.8486 57.3945C76.0247 57.3588 75.357 57.5239 74.7393 58.1816C74.6163 58.3126 74.5469 58.4853 74.5283 58.6641C74.5019 58.919 74.501 59.0258 74.5244 59.2246C74.542 59.3741 74.6718 59.4853 74.8223 59.4854C74.8888 59.4853 74.9531 59.4633 75.0059 59.4229C75.2811 59.2115 75.3893 59.1306 75.5918 59.0068C75.871 58.8362 76.1867 58.724 76.5137 58.71C76.9601 58.6908 77.3054 58.7594 77.7881 59.0176C78.0645 59.2044 78.2855 59.3145 78.5498 59.3936C78.7687 59.459 78.9906 59.3186 79.0557 59.0996C79.0629 59.0751 79.0683 59.0498 79.0713 59.0244C79.0918 58.8471 79.1032 58.7377 79.0977 58.6533C79.0791 58.3731 78.8027 58.1905 78.5762 58.0244C78.4977 57.9582 78.4356 57.9065 78.3818 57.8633C77.958 57.5232 77.3915 57.4181 76.8486 57.3945ZM70.0859 17.7188C71.0779 17.7736 72.0414 18.2551 72.7578 18.9434C72.9514 19.1293 73.1551 19.365 73.3672 19.6826C73.551 19.9579 73.6778 20.2975 73.5957 20.6182C73.5866 20.6536 73.5748 20.686 73.5596 20.7168C73.4237 20.992 73.1233 21.1361 72.8164 21.1338C72.5222 21.1315 72.2237 20.9705 72.0088 20.7695C71.889 20.6575 71.8079 20.5749 71.6865 20.4434C71.5141 20.2565 71.3255 20.0805 71.0996 19.9639C70.6517 19.7328 70.331 19.7404 69.7051 19.7383C69.4983 19.7352 69.2912 19.7317 69.0781 19.7285C68.5735 19.7871 68.339 19.8945 68.0195 20.1436C67.8588 20.2689 67.6041 20.3579 67.4004 20.3662C67.0336 20.3811 66.7415 20.132 66.7061 19.7666C66.7057 19.7633 66.7054 19.7593 66.7051 19.7559C66.6854 19.5449 66.7417 19.3316 66.8701 19.1631C67.714 18.0565 68.8267 17.6492 70.0859 17.7188Z" fill="#478EF9"/>
<path d="M0 107.2H6.66V113.392L6.408 114.256V119.584L6.66 121.168V133.66H0V107.2ZM4.464 117.46C4.824 115.252 5.508 113.344 6.516 111.736C7.524 110.128 8.796 108.88 10.332 107.992C11.892 107.08 13.62 106.624 15.516 106.624C17.532 106.624 19.296 107.08 20.808 107.992C22.344 108.904 23.544 110.176 24.408 111.808C25.272 113.416 25.704 115.3 25.704 117.46C25.704 119.62 25.272 121.516 24.408 123.148C23.544 124.756 22.344 126.016 20.808 126.928C19.296 127.84 17.532 128.296 15.516 128.296C13.596 128.296 11.868 127.852 10.332 126.964C8.82 126.052 7.548 124.792 6.516 123.184C5.508 121.552 4.824 119.644 4.464 117.46ZM18.936 117.46C18.936 116.356 18.708 115.384 18.252 114.544C17.796 113.68 17.16 113.008 16.344 112.528C15.552 112.024 14.628 111.772 13.572 111.772C12.516 111.772 11.508 112.024 10.548 112.528C9.612 113.008 8.784 113.68 8.064 114.544C7.368 115.384 6.828 116.356 6.444 117.46C6.828 118.564 7.368 119.548 8.064 120.412C8.784 121.252 9.612 121.924 10.548 122.428C11.508 122.908 12.516 123.148 13.572 123.148C14.628 123.148 15.552 122.908 16.344 122.428C17.16 121.924 17.796 121.252 18.252 120.412C18.708 119.548 18.936 118.564 18.936 117.46Z" fill="#1D2023"/>
<path d="M47.7222 127.72L46.8222 120.268L47.7942 117.46L46.8222 114.688L47.7222 107.2H54.6702L53.4102 117.46L54.6702 127.72H47.7222ZM49.3782 117.46C49.0182 119.644 48.3342 121.552 47.3262 123.184C46.3182 124.792 45.0462 126.052 43.5102 126.964C41.9742 127.852 40.2462 128.296 38.3262 128.296C36.3102 128.296 34.5342 127.84 32.9982 126.928C31.4862 126.016 30.2982 124.756 29.4342 123.148C28.5702 121.516 28.1382 119.62 28.1382 117.46C28.1382 115.3 28.5702 113.416 29.4342 111.808C30.2982 110.176 31.4862 108.904 32.9982 107.992C34.5342 107.08 36.3102 106.624 38.3262 106.624C40.2462 106.624 41.9742 107.08 43.5102 107.992C45.0462 108.88 46.3182 110.128 47.3262 111.736C48.3582 113.344 49.0422 115.252 49.3782 117.46ZM34.9062 117.46C34.9062 118.564 35.1342 119.548 35.5902 120.412C36.0462 121.252 36.6702 121.924 37.4622 122.428C38.2782 122.908 39.2142 123.148 40.2702 123.148C41.3262 123.148 42.3222 122.908 43.2582 122.428C44.2182 121.924 45.0582 121.252 45.7782 120.412C46.4982 119.548 47.0382 118.564 47.3982 117.46C47.0382 116.356 46.4982 115.384 45.7782 114.544C45.0582 113.68 44.2182 113.008 43.2582 112.528C42.3222 112.024 41.3262 111.772 40.2702 111.772C39.2142 111.772 38.2782 112.024 37.4622 112.528C36.6702 113.008 36.0462 113.68 35.5902 114.544C35.1342 115.384 34.9062 116.356 34.9062 117.46Z" fill="#1D2023"/>
<path d="M86.1488 124.012H84.0248L90.1088 107.2H96.8048L88.9928 127.72H82.1528L75.5288 110.368H77.8328L71.1008 127.72H64.2608L56.4848 107.2H63.2168L69.3368 124.012H67.1408L73.4768 107.2H79.9208L86.1488 124.012Z" fill="#1D2023"/>
<path d="M98.1377 127.72V123.04L112.754 111.052L117.362 112.06H98.2457V107.2H119.882V111.88L105.302 123.868L101.378 122.86H119.954V127.72H98.1377Z" fill="#1D2023"/>
<path d="M123.504 100H130.164V127.72H123.504V100Z" fill="#1D2023"/>
<path d="M140.737 134.236C139.297 134.236 138.013 134.056 136.885 133.696C135.781 133.336 134.701 132.796 133.645 132.076V127.36C134.725 128.056 135.733 128.548 136.669 128.836C137.629 129.148 138.673 129.304 139.801 129.304C140.809 129.304 141.685 129.088 142.429 128.656C143.197 128.224 143.833 127.432 144.337 126.28L152.545 107.2H159.637L149.593 128.368C148.921 129.808 148.117 130.96 147.181 131.824C146.245 132.688 145.225 133.3 144.121 133.66C143.041 134.044 141.913 134.236 140.737 134.236ZM141.529 126.1L132.637 107.2H139.981L147.973 126.1H141.529Z" fill="#1D2023"/>
</svg>
