<svg width="24" height="24" viewBox="0 0 24 24" fill="none" xmlns="http://www.w3.org/2000/svg">
<path fill-rule="evenodd" clip-rule="evenodd" d="M18.5445 9.61857C18.3587 9.42817 18.174 9.26232 17.987 9.11756C17.9789 8.83455 17.9672 8.55343 17.9526 8.27603C17.8406 6.14542 17.7846 5.08011 16.7237 3.80382C16.5472 3.5915 16.0898 3.15754 15.8685 2.99244C14.5383 2 13.6922 2 12 2C10.3078 2 9.46174 2 8.13151 2.99244C7.91021 3.15754 7.45283 3.5915 7.27634 3.80382C6.21543 5.08011 6.15942 6.14542 6.0474 8.27603C6.03282 8.55343 6.02112 8.83455 6.01299 9.11756C5.82596 9.26232 5.64125 9.42817 5.4555 9.61857C4.07364 11.035 4.05016 12.2476 4.0032 14.6728C4.00109 14.7818 4 14.8909 4 15C4 15.1091 4.00109 15.2182 4.0032 15.3272C4.05016 17.7524 4.07364 18.965 5.4555 20.3814C6.83736 21.7978 8.16164 21.8562 10.8102 21.9729C11.2035 21.9902 11.6017 22 12 22C12.3983 22 12.7965 21.9902 13.1898 21.9729C15.8384 21.8562 17.1626 21.7978 18.5445 20.3814C19.9264 18.965 19.9498 17.7524 19.9968 15.3272C19.9989 15.2182 20 15.1091 20 15C20 14.8909 19.9989 14.7818 19.9968 14.6728C19.9498 12.2476 19.9264 11.035 18.5445 9.61857ZM8.81436 5.08229C8.24334 5.76924 8.16308 6.17047 8.0515 8.2518C8.80337 8.11553 9.68789 8.07655 10.8102 8.02709C11.2035 8.00976 11.6017 8 12 8C12.3983 8 12.7965 8.00976 13.1898 8.02709C14.3121 8.07655 15.1966 8.11553 15.9485 8.2518C15.8369 6.17047 15.7567 5.76924 15.1856 5.08229L15.1849 5.0815C14.7841 4.63301 14.2519 4.20619 13.658 4.08116C13.3137 4.0087 12.9059 4 12 4C11.0941 4 10.6863 4.0087 10.342 4.08116C9.74805 4.20619 9.2159 4.63303 8.81512 5.08152L8.81436 5.08229ZM13.3987 15C13.3987 14.2275 12.7725 13.6012 12 13.6012C11.2275 13.6012 10.6013 14.2275 10.6013 15C10.6013 15.7725 11.2275 16.3987 12 16.3987C12.7725 16.3987 13.3987 15.7725 13.3987 15Z" fill="#626C77"/>
</svg>
