<svg width="24" height="24" viewBox="0 0 24 24" fill="none" xmlns="http://www.w3.org/2000/svg">
<path d="M14.4311 18.8211C14.2411 18.8211 14.0511 18.7511 13.9011 18.6011C13.6111 18.3111 13.6111 17.8311 13.9011 17.5411L19.4411 12.0011L13.9011 6.46109C13.6111 6.17109 13.6111 5.69109 13.9011 5.40109C14.1911 5.11109 14.6711 5.11109 14.9611 5.40109L21.0311 11.4711C21.3211 11.7611 21.3211 12.2411 21.0311 12.5311L14.9611 18.6011C14.8111 18.7511 14.6211 18.8211 14.4311 18.8211Z" fill="#FAFAFA"/>
<path d="M20.332 12.75H3.50195C3.09195 12.75 2.75195 12.41 2.75195 12C2.75195 11.59 3.09195 11.25 3.50195 11.25H20.332C20.742 11.25 21.082 11.59 21.082 12C21.082 12.41 20.742 12.75 20.332 12.75Z" fill="#FAFAFA"/>
</svg>
