<svg width="24" height="24" viewBox="0 0 24 24" fill="none" xmlns="http://www.w3.org/2000/svg">
<path d="M7.94513 4.1681C9.098 4.06801 10.4505 4.00037 12.0004 4.00037C13.5497 4.00037 14.9018 4.06796 16.0545 4.16799C18.0797 4.34376 19.0924 4.43165 20.3818 5.72566C20.6684 6.01328 20.8953 6.28494 21.0767 6.55483C20.3348 7.21527 18.8916 8.41723 17.1702 9.43439C16.6894 9.71852 16.1773 9.99378 15.6594 10.2542C13.6929 11.2431 13.1252 11.4977 12.0002 11.4977C10.8752 11.4977 10.3075 11.2431 8.34101 10.2542C7.82308 9.99378 7.31101 9.71852 6.83017 9.43439C5.10905 8.41736 3.666 7.21559 2.92403 6.5551C3.10544 6.28509 3.33244 6.01331 3.61924 5.72553C4.90861 4.43174 5.92078 4.34386 7.94513 4.1681Z" fill="#626C77"/>
<path d="M2.21981 8.58927C3.08657 9.31632 4.35284 10.2936 5.81272 11.1562C6.34038 11.468 6.89335 11.7649 7.44249 12.041C9.37368 13.0122 10.3393 13.4977 12.0002 13.4977C13.6612 13.4977 14.6267 13.0122 16.5579 12.041C17.1071 11.7649 17.66 11.468 18.1877 11.1562C19.6479 10.2934 20.9143 9.31597 21.781 8.58895C21.835 8.98599 21.8716 9.42606 21.9137 9.93207C21.9677 10.5806 22.0007 11.274 22.0007 12.0004C22.0007 12.7269 21.9677 13.4204 21.9137 14.0689C21.7521 16.0104 21.6713 16.9811 20.3818 18.2751C19.0924 19.5691 18.0798 19.657 16.0547 19.8328C14.902 19.9328 13.5498 20.0004 12.0004 20.0004C10.4504 20.0004 9.09787 19.9328 7.94497 19.8327C5.92071 19.6569 4.90858 19.569 3.61924 18.2752C2.32989 16.9815 2.24899 16.0112 2.08719 14.0707C2.03307 13.4217 2 12.7276 2 12.0004C2 11.2733 2.03307 10.5792 2.08718 9.93016C2.12929 9.42507 2.16593 8.98571 2.21981 8.58927Z" fill="#626C77"/>
</svg>
