<svg width="84" height="44" viewBox="0 0 84 44" fill="none" xmlns="http://www.w3.org/2000/svg">
<path d="M0 16.7855H3.50446V20.041L3.37186 20.4953V23.2965L3.50446 24.1293V30.6972H0V16.7855ZM2.34893 22.1798C2.53836 21.0189 2.89828 20.0158 3.42869 19.1703C3.95909 18.3249 4.62841 17.6688 5.43665 17.2019C6.25751 16.7224 7.16678 16.4827 8.16444 16.4827C9.22525 16.4827 10.1535 16.7224 10.9491 17.2019C11.7573 17.6814 12.3887 18.3502 12.8434 19.2082C13.298 20.0536 13.5253 21.0442 13.5253 22.1798C13.5253 23.3155 13.298 24.3123 12.8434 25.1703C12.3887 26.0158 11.7573 26.6782 10.9491 27.1577C10.1535 27.6372 9.22525 27.877 8.16444 27.877C7.15415 27.877 6.24488 27.6435 5.43665 27.1767C4.64104 26.6972 3.97172 26.0347 3.42869 25.1893C2.89828 24.3312 2.53836 23.3281 2.34893 22.1798ZM9.96403 22.1798C9.96403 21.5994 9.84406 21.0883 9.60411 20.6467C9.36417 20.1924 9.02951 19.8391 8.60013 19.5868C8.18338 19.3218 7.69718 19.1893 7.14152 19.1893C6.58586 19.1893 6.05545 19.3218 5.5503 19.5868C5.05779 19.8391 4.6221 20.1924 4.24324 20.6467C3.877 21.0883 3.59286 21.5994 3.3908 22.1798C3.59286 22.7603 3.877 23.2776 4.24324 23.7319C4.6221 24.1735 5.05779 24.5268 5.5503 24.7918C6.05545 25.0442 6.58586 25.1703 7.14152 25.1703C7.69718 25.1703 8.18338 25.0442 8.60013 24.7918C9.02951 24.5268 9.36417 24.1735 9.60411 23.7319C9.84406 23.2776 9.96403 22.7603 9.96403 22.1798Z" fill="#F2F3F7"/>
<path d="M25.1112 27.5741L24.6376 23.6562L25.1491 22.1798L24.6376 20.7224L25.1112 16.7855H28.7672L28.1042 22.1798L28.7672 27.5741H25.1112ZM25.9826 22.1798C25.7931 23.3281 25.4332 24.3312 24.9028 25.1893C24.3724 26.0347 23.7031 26.6972 22.8949 27.1767C22.0866 27.6435 21.1774 27.877 20.1671 27.877C19.1063 27.877 18.1717 27.6372 17.3635 27.1577C16.5679 26.6782 15.9428 26.0158 15.4881 25.1703C15.0335 24.3123 14.8062 23.3155 14.8062 22.1798C14.8062 21.0442 15.0335 20.0536 15.4881 19.2082C15.9428 18.3502 16.5679 17.6814 17.3635 17.2019C18.1717 16.7224 19.1063 16.4827 20.1671 16.4827C21.1774 16.4827 22.0866 16.7224 22.8949 17.2019C23.7031 17.6688 24.3724 18.3249 24.9028 19.1703C25.4459 20.0158 25.8058 21.0189 25.9826 22.1798ZM18.3675 22.1798C18.3675 22.7603 18.4874 23.2776 18.7274 23.7319C18.9673 24.1735 19.2957 24.5268 19.7124 24.7918C20.1418 25.0442 20.6343 25.1703 21.19 25.1703C21.7456 25.1703 22.2697 25.0442 22.7623 24.7918C23.2674 24.5268 23.7094 24.1735 24.0883 23.7319C24.4671 23.2776 24.7513 22.7603 24.9407 22.1798C24.7513 21.5994 24.4671 21.0883 24.0883 20.6467C23.7094 20.1924 23.2674 19.8391 22.7623 19.5868C22.2697 19.3218 21.7456 19.1893 21.19 19.1893C20.6343 19.1893 20.1418 19.3218 19.7124 19.5868C19.2957 19.8391 18.9673 20.1924 18.7274 20.6467C18.4874 21.0883 18.3675 21.5994 18.3675 22.1798Z" fill="#F2F3F7"/>
<path d="M45.3311 25.6246H44.2134L47.4148 16.7855H50.9382L46.8276 27.5741H43.2284L39.7429 18.4511H40.9552L37.4129 27.5741H33.8137L29.722 16.7855H33.2644L36.4847 25.6246H35.3292L38.6631 16.7855H42.0539L45.3311 25.6246Z" fill="#F2F3F7"/>
<path d="M51.6396 27.5741V25.1136L59.3304 18.8107L61.7551 19.3407H51.6964V16.7855H63.0811V19.2461L55.4092 25.5489L53.3444 25.0189H63.119V27.5741H51.6396Z" fill="#F2F3F7"/>
<path d="M64.9871 13H68.4916V27.5741H64.9871V13Z" fill="#F2F3F7"/>
<path d="M74.0549 31C73.2972 31 72.6216 30.9054 72.028 30.7161C71.4471 30.5268 70.8788 30.2429 70.3231 29.8644V27.3849C70.8914 27.7508 71.4218 28.0095 71.9144 28.1609C72.4195 28.3249 72.9688 28.4069 73.5624 28.4069C74.0928 28.4069 74.5537 28.2934 74.9452 28.0662C75.3493 27.8391 75.684 27.4227 75.9492 26.817L80.2682 16.7855H84L78.7149 27.9148C78.3613 28.6719 77.9382 29.2776 77.4457 29.7319C76.9532 30.1861 76.4165 30.5079 75.8356 30.6972C75.2673 30.8991 74.6737 31 74.0549 31ZM74.4717 26.7224L69.7927 16.7855H73.6571L77.8625 26.7224H74.4717Z" fill="#F2F3F7"/>
</svg>
