<svg width="45" height="44" viewBox="0 0 45 44" fill="none" xmlns="http://www.w3.org/2000/svg">
<path fill-rule="evenodd" clip-rule="evenodd" d="M16.5605 0.687268C19.5208 -0.159242 22.9128 -0.169484 25.9307 0.361096C26.0458 0.380114 26.1616 0.39912 26.2803 0.418713C27.2054 0.576535 28.0852 0.813535 28.9736 1.11403C29.0744 1.14775 29.0748 1.14795 29.1777 1.18239C32.3708 2.25866 35.1825 3.94382 37.5996 6.29078C37.6544 6.34311 37.7092 6.39606 37.7656 6.44996C38.5861 7.23466 39.3287 8.04686 39.9912 8.96949C40.0424 9.04068 40.0938 9.11197 40.1465 9.18532C43.3414 13.6872 44.9847 19.2386 44.1504 24.7654C43.5926 27.9894 42.5226 31.3717 40.5566 34.0545C40.2155 34.52 39.5446 34.5489 39.1641 34.115C39.07 34.0078 38.9773 33.8989 38.8848 33.7888C38.1926 32.974 37.4811 32.1747 36.7148 31.4285C36.553 31.263 36.468 31.2073 36.4267 31.1443C36.3864 31.0823 36.3179 31.0146 36.2607 30.9675C36.1226 30.8272 36.1225 30.8268 35.9619 30.6326C35.7299 30.3586 35.4926 30.1035 35.2324 29.8562C34.688 29.3191 34.2357 28.7064 33.7744 28.0984C33.7062 28.0095 33.6376 27.9204 33.5674 27.8289C32.0182 25.7613 30.2474 22.612 30.1445 19.9246C30.1403 19.8149 30.0224 19.7446 29.9258 19.7966C28.9078 20.3283 28.0622 20.5673 26.917 20.5964C26.8319 20.6002 26.7468 20.6033 26.6592 20.6072C26.0049 20.6097 25.6296 20.4273 25.166 19.9685C24.3173 18.9504 24.0431 17.7051 23.8271 16.4295C23.8073 16.3203 23.787 16.2109 23.7666 16.0984C23.6285 15.2078 23.6185 14.3218 23.6182 13.4226C23.6181 13.2992 23.6173 13.1757 23.6172 13.0486C23.6208 12.4308 23.6443 11.8284 23.7246 11.2166C23.7282 11.1894 23.7518 11.1687 23.7793 11.1687C23.8065 11.1687 23.8301 11.1887 23.834 11.2156C23.86 11.4031 23.8856 11.5916 23.9111 11.7791C23.92 11.8438 23.9283 11.9087 23.9375 11.9754C23.983 12.3137 24.0245 12.6518 24.0537 12.992C24.1336 13.8931 24.2868 14.7678 24.4785 15.6521C24.5124 15.8123 24.5123 15.8129 24.5469 15.9763C24.8327 17.2471 25.2807 18.5335 26.3428 19.3445C26.3866 19.3779 26.4337 19.4078 26.4844 19.4295C27.203 19.7369 28.1971 19.4666 28.9043 19.2351C29.9381 18.8648 31.1098 18.211 31.6992 17.2547C32.3299 15.8998 32.1935 14.742 31.6924 13.3591C31.3612 12.5084 30.9552 11.7236 30.4267 10.9773C30.3619 10.8853 30.2962 10.7938 30.2295 10.699C28.6415 8.51474 26.6646 7.07885 24.21 6.00465C24.129 5.96743 24.0473 5.92972 23.9639 5.89137C21.7787 4.9375 18.8173 4.61725 16.5576 5.43043C15.468 5.86514 14.5921 6.48111 13.8213 7.36207C12.3498 9.03177 10.3121 9.35071 8.18261 9.5359C7.38313 9.60879 6.60181 9.72297 5.958 10.2166C5.88161 10.2752 5.81801 10.3492 5.76952 10.4324C5.32218 11.2 5.25643 12.034 5.43358 12.9148C5.47288 13.0668 5.51468 13.2182 5.55858 13.3689C5.59014 13.4807 5.62178 13.5926 5.65429 13.7078C5.99887 14.8663 6.51052 15.7886 7.56737 16.4295C8.33473 16.8405 9.13592 17.1782 9.94628 17.4939C11.8803 18.254 13.2537 19.4014 14.0928 21.3172C15.2996 24.2645 14.3011 27.8429 13.7051 30.8396C13.4654 32.0551 13.2727 33.2778 13.1152 34.5066C13.1069 34.5713 13.0984 34.6362 13.0898 34.7029C13.0293 35.2033 13.0037 35.6952 13.0029 36.199C13.0026 36.2752 13.0023 36.3519 13.0019 36.4304C13.0015 36.5908 13.001 36.7515 13.001 36.9119C13.0008 37.1527 12.9998 37.3937 12.998 37.6345C12.9939 38.817 13.0986 39.9243 13.3926 41.072C13.3983 41.0944 13.4014 41.1182 13.4014 41.1414C13.4016 41.3182 13.5673 41.4481 13.7383 41.4031C16.1886 40.7551 18.3542 39.6385 20.1924 37.8543C20.2933 37.7622 20.2935 37.7617 20.3965 37.6677C20.8912 37.2031 21.2732 36.6832 21.5986 36.0896C21.6174 36.0553 21.6269 36.0165 21.6269 35.9773C21.6269 35.8954 21.5847 35.8185 21.5146 35.7761C21.3389 35.6698 21.1619 35.5694 20.9814 35.4695C19.6763 34.7131 18.6643 33.7282 18.1201 32.2976C18.0983 32.2402 18.0823 32.1797 18.0732 32.1189C17.8995 30.949 18.1465 30.0694 18.7578 29.0545C18.8817 28.8256 18.9991 28.5935 19.1162 28.3611C19.1689 28.2602 19.2221 28.1594 19.2764 28.0554C19.6492 27.2174 19.7944 26.3595 19.9238 25.4558C19.9407 25.3418 19.9572 25.2276 19.9746 25.1101C20.0285 24.7461 20.4535 24.597 20.6504 24.908C20.7185 25.0155 20.7832 25.1306 20.8486 25.2576C21.3347 26.224 21.3732 26.3013 22.0967 26.8084C22.23 26.9018 22.3854 26.9635 22.5478 26.9744C23.0991 27.0114 23.6392 26.9515 24.1914 26.8806C24.6205 26.844 25.041 26.8801 25.4658 26.9295C25.5748 26.942 25.6815 26.891 25.7392 26.7976C26.9693 24.8143 26.9901 24.7811 27.4394 24.2966C27.4538 24.2814 27.4742 24.2722 27.4951 24.2722C27.5309 24.2723 27.562 24.2977 27.5693 24.3328C28.5714 29.1211 29.3224 33.923 29.2988 38.8279C29.2973 39.1469 29.2968 39.4659 29.2969 39.7849C29.2968 40.0959 29.2957 40.4075 29.2949 40.7185C29.2948 40.8313 29.295 40.9441 29.2949 41.0603C29.2927 41.4497 29.2791 41.8318 29.248 42.2146C29.2174 42.5915 28.9576 42.9087 28.5957 43.0183C27.1904 43.4438 25.7673 43.6697 24.3057 43.8797C24.143 43.9056 24.1424 43.9059 23.9766 43.9324C23.6136 43.9784 23.2559 43.9925 22.8906 43.9949C22.821 43.9956 22.7514 43.9961 22.6797 43.9968C21.1301 44.0084 19.6126 43.9985 18.0879 43.6882C17.9465 43.6599 17.9461 43.6596 17.8017 43.6306C14.3665 42.9196 11.1488 41.4129 8.4287 39.1931C8.33355 39.1174 8.23768 39.0416 8.13964 38.9636C6.75467 37.8435 5.41528 36.5566 4.41112 35.0808C4.37143 35.0227 4.3319 34.964 4.29101 34.9041C3.02212 33.0229 2.16251 30.9985 2.56151 28.6922C2.82016 27.7412 3.38791 26.9214 4.21972 26.3767C4.73579 26.1107 5.15472 26.0369 5.73241 26.0418C5.80811 26.0423 5.88392 26.0431 5.9619 26.0437C6.68005 26.0656 7.20263 26.2389 7.74218 26.7254C8.17018 27.1845 8.43739 27.6906 8.46386 28.3259C8.43621 29.0295 8.22859 29.6354 7.73534 30.1326C7.68808 30.1802 7.63414 30.2209 7.57616 30.2547C7.16237 30.4955 6.77085 30.6252 6.31347 30.6101C6.13212 30.6041 5.9601 30.5273 5.82519 30.406C5.73609 30.3258 5.68862 30.2678 5.55858 30.1072C5.52294 30.0715 5.48719 30.0358 5.45116 29.9998C5.39761 29.9462 5.32474 29.9159 5.24901 29.9158C5.10025 29.9158 4.9739 30.0298 4.96972 30.1785C4.9559 30.6835 5.04622 31.0946 5.36718 31.5418C5.83923 32.0572 6.31494 32.3031 7.01757 32.3425C7.83288 32.3206 8.62117 31.9225 9.19335 31.3504C10.1166 30.1535 10.2919 28.7978 10.1494 27.3328C9.94193 26.2016 9.27515 25.2162 8.333 24.5593C7.13799 23.8905 5.68151 23.7649 4.36718 24.1277C3.32097 24.4555 2.19959 24.9785 1.63671 25.9724C1.39312 26.4467 1.17129 26.9324 0.997061 27.4363C0.97901 27.4885 0.930232 27.5242 0.87499 27.5242C0.816786 27.5241 0.765599 27.4848 0.750967 27.4285C-0.00403661 24.5169 -0.195778 21.62 0.203115 18.6297C0.212332 18.5601 0.220964 18.4903 0.230459 18.4187C0.682266 15.1826 2.00937 11.9853 3.93261 9.35133C3.97072 9.299 4.00955 9.24704 4.04882 9.19313C5.18563 7.64762 6.44039 6.23735 7.95019 5.04762C8.04455 4.97185 8.13909 4.89619 8.23632 4.81813C10.6692 2.89793 13.3941 1.59422 16.3672 0.743908C16.431 0.72526 16.4948 0.70648 16.5605 0.687268ZM22.1435 32.4236C22.0444 32.4238 21.9582 32.493 21.9355 32.5896C21.9221 32.6466 21.9322 32.7067 21.9658 32.7547C21.9969 32.799 22.0182 32.8224 22.0898 32.8972C22.1246 32.9335 22.1587 32.9685 22.1924 33.0037C22.3019 33.1416 22.4328 33.2298 22.2734 33.4412C22.1319 33.6288 21.8945 33.5512 21.6914 33.5603C21.6473 33.5625 21.6154 33.6011 21.6152 33.6453C21.6152 33.6768 21.6316 33.7065 21.6582 33.7234C21.9444 33.9054 22.2073 34.0378 22.5498 34.0496C22.9001 34.0316 23.1744 33.9156 23.4209 33.6804C23.4668 33.6365 23.4373 33.5625 23.374 33.5574C23.3061 33.5519 23.2398 33.5461 23.1738 33.5408C23.0274 33.5293 22.81 33.56 22.751 33.4412C22.7399 33.4188 22.7327 33.3981 22.7275 33.3787C22.6857 33.2205 22.8467 33.0893 22.9502 32.9627C22.9911 32.9035 22.9912 32.9033 23.0312 32.8455C23.0951 32.7555 23.11 32.7343 23.1387 32.6775C23.159 32.6373 23.1619 32.5896 23.1484 32.5466C23.1253 32.4732 23.0575 32.4237 22.9805 32.4236H22.1435ZM25.5625 30.3328C24.9344 30.1652 24.3795 30.2028 23.9307 30.6609C23.8598 30.7334 23.8188 30.8297 23.8076 30.9304C23.7994 31.0042 23.7979 31.0483 23.8037 31.1033C23.8136 31.1968 23.8844 31.2737 23.9736 31.3035C24.061 31.3324 24.1559 31.3111 24.2246 31.2498C24.3089 31.1742 24.3554 31.1371 24.458 31.0632C24.546 30.9999 24.6472 30.9552 24.7549 30.9422C25.0646 30.9049 25.3222 30.9496 25.6201 31.1052C25.6532 31.1282 25.6852 31.1489 25.7158 31.1677C25.9524 31.313 26.2319 31.1342 26.168 30.864C26.1468 30.7747 26.0849 30.6487 26.0146 30.5896C25.8874 30.4827 25.8418 30.4491 25.7637 30.4089C25.6998 30.3762 25.6318 30.3513 25.5625 30.3328ZM20.4941 30.0613C20.1223 30.0657 19.8113 30.1677 19.5215 30.4763C19.4572 30.5449 19.4208 30.6348 19.4111 30.7283C19.3972 30.862 19.3969 30.9179 19.4092 31.0222C19.4184 31.1005 19.4866 31.1589 19.5654 31.1589C19.6001 31.1588 19.6336 31.1469 19.6611 31.1257C19.8052 31.0151 19.8618 30.9727 19.9678 30.908C20.114 30.8186 20.2799 30.76 20.4512 30.7527C20.6849 30.7427 20.8663 30.7786 21.1191 30.9138C21.2638 31.0115 21.3792 31.0697 21.5176 31.1111C21.6322 31.1453 21.7481 31.0715 21.7822 30.9568C21.786 30.944 21.7894 30.931 21.791 30.9177C21.8018 30.825 21.8075 30.7676 21.8047 30.7234C21.7951 30.5765 21.65 30.4804 21.5312 30.3933C21.2466 30.1532 20.8665 30.057 20.4941 30.0613ZM17.0869 9.28102C17.6065 9.30977 18.1111 9.56213 18.4863 9.92262C18.5876 10.02 18.6946 10.1431 18.8057 10.3093C18.9019 10.4535 18.9677 10.6316 18.9248 10.7996C18.9201 10.8181 18.9142 10.8352 18.9062 10.8513C18.8351 10.9955 18.6774 11.0713 18.5166 11.0701C18.3626 11.0688 18.2062 10.9848 18.0937 10.8797C18.031 10.8209 17.9884 10.7776 17.9248 10.7088C17.8345 10.6109 17.7365 10.5179 17.6182 10.4568C17.3835 10.3357 17.2155 10.3398 16.8877 10.3386C16.7795 10.337 16.6711 10.3354 16.5596 10.3338C16.295 10.3645 16.1713 10.421 16.0039 10.5515C15.9197 10.6171 15.7863 10.6634 15.6797 10.6677C15.4876 10.6753 15.3349 10.5446 15.3164 10.3533C15.3162 10.3517 15.3156 10.3501 15.3154 10.3484C15.3051 10.2379 15.3351 10.1261 15.4023 10.0379C15.8443 9.4582 16.4273 9.2446 17.0869 9.28102Z" fill="#F2F3F7"/>
</svg>
