<svg width="45" height="44" viewBox="0 0 45 44" fill="none" xmlns="http://www.w3.org/2000/svg">
<path d="M16.5605 0.6875C19.5208 -0.15901 22.9128 -0.169252 25.9307 0.361328C26.0458 0.380346 26.1616 0.399352 26.2803 0.418945C27.2054 0.576767 28.0852 0.813767 28.9736 1.11426C29.0744 1.14798 29.0749 1.14819 29.1777 1.18262C32.3708 2.2589 35.1825 3.94405 37.5996 6.29102C37.6544 6.34334 37.7092 6.39629 37.7656 6.4502C38.5861 7.23489 39.3287 8.04709 39.9912 8.96973C40.0424 9.04091 40.0938 9.11221 40.1465 9.18555C43.3414 13.6874 44.9847 19.2388 44.1504 24.7656C43.5926 27.9896 42.5226 31.372 40.5566 34.0547C40.2155 34.5202 39.5446 34.5492 39.1641 34.1152C39.07 34.008 38.9773 33.8991 38.8848 33.7891C38.1927 32.9742 37.4811 32.175 36.7148 31.4287C36.553 31.2632 36.468 31.2075 36.4268 31.1445C36.3864 31.0826 36.3179 31.0148 36.2607 30.9678C36.1226 30.8274 36.1225 30.827 35.9619 30.6328C35.7299 30.3588 35.4926 30.1038 35.2324 29.8564C34.688 29.3194 34.2357 28.7066 33.7744 28.0986C33.7062 28.0098 33.6376 27.9207 33.5674 27.8291C32.0182 25.7615 30.2474 22.6122 30.1445 19.9248C30.1403 19.8152 30.0224 19.7449 29.9258 19.7969C28.9078 20.3285 28.0622 20.5675 26.917 20.5967C26.832 20.6004 26.7468 20.6036 26.6592 20.6074C26.0049 20.61 25.6296 20.4276 25.166 19.9688C24.3173 18.9506 24.0432 17.7053 23.8271 16.4297C23.8073 16.3205 23.787 16.2111 23.7666 16.0986C23.6285 15.208 23.6185 14.3221 23.6182 13.4229C23.6181 13.2994 23.6173 13.176 23.6172 13.0488C23.6208 12.431 23.6443 11.8286 23.7246 11.2168C23.7282 11.1896 23.7519 11.1689 23.7793 11.1689C23.8065 11.169 23.8301 11.1889 23.834 11.2158C23.86 11.4033 23.8856 11.5918 23.9111 11.7793C23.92 11.844 23.9283 11.9089 23.9375 11.9756C23.983 12.314 24.0245 12.652 24.0537 12.9922C24.1336 13.8933 24.2868 14.7681 24.4785 15.6523C24.5124 15.8125 24.5123 15.8131 24.5469 15.9766C24.8327 17.2473 25.2807 18.5338 26.3428 19.3447C26.3866 19.3782 26.4337 19.408 26.4844 19.4297C27.203 19.7372 28.1971 19.4668 28.9043 19.2354C29.9382 18.865 31.1098 18.2113 31.6992 17.2549C32.3299 15.9001 32.1935 14.7422 31.6924 13.3594C31.3612 12.5087 30.9552 11.7239 30.4268 10.9775C30.362 10.8855 30.2963 10.794 30.2295 10.6992C28.6415 8.51497 26.6646 7.07908 24.21 6.00488C24.129 5.96766 24.0473 5.92995 23.9639 5.8916C21.7787 4.93773 18.8173 4.61748 16.5576 5.43066C15.468 5.86537 14.5921 6.48134 13.8213 7.3623C12.3498 9.032 10.3121 9.35095 8.18262 9.53613C7.38314 9.60902 6.60182 9.7232 5.95801 10.2168C5.88162 10.2754 5.81802 10.3494 5.76953 10.4326C5.32219 11.2002 5.25644 12.0343 5.43359 12.915C5.47289 13.067 5.51468 13.2184 5.55859 13.3691C5.59015 13.4809 5.62179 13.5928 5.6543 13.708C5.99888 14.8665 6.51053 15.7888 7.56738 16.4297C8.33474 16.8407 9.13593 17.1785 9.94629 17.4941C11.8803 18.2543 13.2538 19.4016 14.0928 21.3174C15.2996 24.2647 14.3011 27.8432 13.7051 30.8398C13.4654 32.0553 13.2727 33.278 13.1152 34.5068C13.1069 34.5716 13.0984 34.6364 13.0898 34.7031C13.0293 35.2035 13.0037 35.6954 13.0029 36.1992C13.0026 36.2754 13.0023 36.3521 13.002 36.4307C13.0015 36.591 13.001 36.7518 13.001 36.9121C13.0008 37.1529 12.9999 37.3939 12.998 37.6348C12.994 38.8172 13.0986 39.9245 13.3926 41.0723C13.3983 41.0947 13.4014 41.1185 13.4014 41.1416C13.4016 41.3184 13.5673 41.4484 13.7383 41.4033C16.1886 40.7553 18.3542 39.6388 20.1924 37.8545C20.2933 37.7624 20.2935 37.7619 20.3965 37.668C20.8912 37.2033 21.2732 36.6835 21.5986 36.0898C21.6175 36.0555 21.6269 36.0167 21.627 35.9775C21.627 35.8957 21.5847 35.8188 21.5146 35.7764C21.3389 35.67 21.1619 35.5697 20.9814 35.4697C19.6763 34.7134 18.6643 33.7285 18.1201 32.2979C18.0983 32.2404 18.0823 32.1799 18.0732 32.1191C17.8995 30.9493 18.1465 30.0696 18.7578 29.0547C18.8817 28.8258 18.9991 28.5938 19.1162 28.3613C19.1689 28.2604 19.2221 28.1597 19.2764 28.0557C19.6492 27.2176 19.7944 26.3597 19.9238 25.4561C19.9407 25.342 19.9572 25.2279 19.9746 25.1104C20.0285 24.7463 20.4536 24.5973 20.6504 24.9082C20.7185 25.0158 20.7832 25.1309 20.8486 25.2578C21.3347 26.2243 21.3732 26.3015 22.0967 26.8086C22.23 26.902 22.3854 26.9637 22.5479 26.9746C23.0991 27.0116 23.6392 26.9517 24.1914 26.8809C24.6205 26.8442 25.0411 26.8803 25.4658 26.9297C25.5748 26.9422 25.6815 26.8912 25.7393 26.7979C26.9694 24.8146 26.9901 24.7814 27.4395 24.2969C27.4538 24.2816 27.4742 24.2725 27.4951 24.2725C27.5309 24.2726 27.562 24.2979 27.5693 24.333C28.5714 29.1213 29.3224 33.9232 29.2988 38.8281C29.2973 39.1471 29.2968 39.4661 29.2969 39.7852C29.2968 40.0961 29.2957 40.4078 29.2949 40.7188C29.2948 40.8315 29.295 40.9444 29.2949 41.0605C29.2927 41.45 29.2791 41.8321 29.248 42.2148C29.2174 42.5917 28.9576 42.909 28.5957 43.0186C27.1904 43.4441 25.7673 43.6699 24.3057 43.8799C24.143 43.9058 24.1424 43.9061 23.9766 43.9326C23.6136 43.9786 23.2559 43.9928 22.8906 43.9951C22.8211 43.9958 22.7514 43.9964 22.6797 43.9971C21.1301 44.0086 19.6126 43.9987 18.0879 43.6885C17.9465 43.6601 17.9461 43.6598 17.8018 43.6309C14.3665 42.9198 11.1488 41.4131 8.42871 39.1934C8.33356 39.1177 8.23769 39.0418 8.13965 38.9639C6.75468 37.8437 5.41528 36.5568 4.41113 35.0811C4.37144 35.0229 4.3319 34.9642 4.29102 34.9043C3.02213 33.0231 2.16252 30.9987 2.56152 28.6924C2.82017 27.7414 3.38792 26.9216 4.21973 26.377C4.7358 26.111 5.15473 26.0372 5.73242 26.042C5.80812 26.0425 5.88392 26.0434 5.96191 26.0439C6.68006 26.0658 7.20263 26.2392 7.74219 26.7256C8.17019 27.1848 8.4374 27.6908 8.46387 28.3262C8.43622 29.0297 8.2286 29.6356 7.73535 30.1328C7.68809 30.1804 7.63415 30.2211 7.57617 30.2549C7.16238 30.4957 6.77086 30.6254 6.31348 30.6104C6.13213 30.6044 5.96011 30.5276 5.8252 30.4062C5.7361 30.326 5.68863 30.2681 5.55859 30.1074C5.52295 30.0718 5.4872 30.036 5.45117 30C5.39762 29.9464 5.32475 29.9161 5.24902 29.916C5.10026 29.916 4.97391 30.03 4.96973 30.1787C4.95591 30.6838 5.04623 31.0949 5.36719 31.542C5.83924 32.0575 6.31495 32.3033 7.01758 32.3428C7.83289 32.3208 8.62117 31.9228 9.19336 31.3506C10.1166 30.1537 10.2919 28.7981 10.1494 27.333C9.94194 26.2018 9.27516 25.2164 8.33301 24.5596C7.138 23.8908 5.68152 23.7651 4.36719 24.1279C3.32098 24.4558 2.1996 24.9788 1.63672 25.9727C1.39313 26.4469 1.1713 26.9326 0.99707 27.4365C0.97902 27.4887 0.930242 27.5244 0.875 27.5244C0.816796 27.5243 0.765609 27.4851 0.750977 27.4287C-0.00402704 24.5172 -0.195769 21.6203 0.203125 18.6299C0.212342 18.5604 0.220973 18.4906 0.230469 18.4189C0.682276 15.1828 2.00938 11.9856 3.93262 9.35156C3.97073 9.29924 4.00956 9.24727 4.04883 9.19336C5.18564 7.64785 6.4404 6.23759 7.9502 5.04785C8.04456 4.97209 8.1391 4.89642 8.23633 4.81836C10.6692 2.89816 13.3941 1.59445 16.3672 0.744141C16.431 0.725492 16.4948 0.706712 16.5605 0.6875ZM22.1436 32.4238C22.0444 32.424 21.9583 32.4933 21.9355 32.5898C21.9221 32.6469 21.9322 32.7069 21.9658 32.7549C21.9969 32.7992 22.0182 32.8226 22.0898 32.8975C22.1246 32.9337 22.1587 32.9687 22.1924 33.0039C22.3019 33.1419 22.4328 33.23 22.2734 33.4414C22.1319 33.629 21.8945 33.5515 21.6914 33.5605C21.6473 33.5627 21.6154 33.6013 21.6152 33.6455C21.6152 33.677 21.6316 33.7067 21.6582 33.7236C21.9444 33.9056 22.2073 34.0381 22.5498 34.0498C22.9001 34.0318 23.1744 33.9158 23.4209 33.6807C23.4668 33.6367 23.4373 33.5627 23.374 33.5576C23.3061 33.5521 23.2398 33.5463 23.1738 33.541C23.0274 33.5295 22.81 33.5603 22.751 33.4414C22.7399 33.4191 22.7327 33.3983 22.7275 33.3789C22.6857 33.2208 22.8467 33.0896 22.9502 32.9629C22.9911 32.9038 22.9913 32.9035 23.0312 32.8457C23.0951 32.7557 23.11 32.7346 23.1387 32.6777C23.159 32.6375 23.1619 32.5899 23.1484 32.5469C23.1253 32.4734 23.0575 32.4239 22.9805 32.4238H22.1436ZM25.5625 30.333C24.9344 30.1655 24.3795 30.203 23.9307 30.6611C23.8598 30.7336 23.8189 30.8299 23.8076 30.9307C23.7994 31.0045 23.7979 31.0485 23.8037 31.1035C23.8136 31.197 23.8844 31.274 23.9736 31.3037C24.061 31.3326 24.1559 31.3113 24.2246 31.25C24.3089 31.1745 24.3554 31.1373 24.458 31.0635C24.546 31.0001 24.6472 30.9554 24.7549 30.9424C25.0646 30.9051 25.3222 30.9498 25.6201 31.1055C25.6532 31.1284 25.6852 31.1492 25.7158 31.168C25.9525 31.3132 26.2319 31.1344 26.168 30.8643C26.1468 30.775 26.0849 30.6489 26.0146 30.5898C25.8874 30.4829 25.8418 30.4493 25.7637 30.4092C25.6998 30.3764 25.6318 30.3515 25.5625 30.333ZM20.4941 30.0615C20.1223 30.0659 19.8114 30.1679 19.5215 30.4766C19.4572 30.5452 19.4209 30.635 19.4111 30.7285C19.3973 30.8623 19.3969 30.9182 19.4092 31.0225C19.4184 31.1008 19.4866 31.1592 19.5654 31.1592C19.6001 31.1591 19.6336 31.1471 19.6611 31.126C19.8052 31.0153 19.8618 30.973 19.9678 30.9082C20.1141 30.8188 20.2799 30.7603 20.4512 30.7529C20.685 30.7429 20.8663 30.7788 21.1191 30.9141C21.2638 31.0118 21.3792 31.0699 21.5176 31.1113C21.6322 31.1455 21.7481 31.0717 21.7822 30.957C21.786 30.9442 21.7895 30.9313 21.791 30.918C21.8018 30.8253 21.8075 30.7678 21.8047 30.7236C21.7951 30.5767 21.65 30.4806 21.5312 30.3936C21.2466 30.1535 20.8665 30.0572 20.4941 30.0615ZM17.0869 9.28125C17.6065 9.31 18.1111 9.56236 18.4863 9.92285C18.5876 10.0202 18.6946 10.1433 18.8057 10.3096C18.9019 10.4537 18.9677 10.6319 18.9248 10.7998C18.9201 10.8183 18.9142 10.8355 18.9062 10.8516C18.8351 10.9957 18.6774 11.0715 18.5166 11.0703C18.3627 11.069 18.2062 10.985 18.0938 10.8799C18.031 10.8212 17.9884 10.7779 17.9248 10.709C17.8345 10.6111 17.7365 10.5181 17.6182 10.457C17.3835 10.3359 17.2155 10.34 16.8877 10.3389C16.7795 10.3373 16.6711 10.3356 16.5596 10.334C16.295 10.3647 16.1713 10.4212 16.0039 10.5518C15.9197 10.6173 15.7863 10.6636 15.6797 10.668C15.4877 10.6756 15.3349 10.5449 15.3164 10.3535C15.3162 10.3519 15.3156 10.3503 15.3154 10.3486C15.3051 10.2381 15.3351 10.1264 15.4023 10.0381C15.8444 9.45843 16.4273 9.24483 17.0869 9.28125Z" fill="#1D2023"/>
</svg>
