<svg width="52" height="52" viewBox="0 0 52 52" fill="none" xmlns="http://www.w3.org/2000/svg">
<path d="M0 26C0 16.6615 0 11.9922 1.88926 8.45765C3.381 5.66681 5.66681 3.381 8.45765 1.88926C11.9922 0 16.6615 0 26 0C35.3385 0 40.0078 0 43.5423 1.88926C46.3332 3.381 48.619 5.66681 50.1107 8.45765C52 11.9922 52 16.6615 52 26C52 35.3385 52 40.0078 50.1107 43.5423C48.619 46.3332 46.3332 48.619 43.5423 50.1107C40.0078 52 35.3385 52 26 52C16.6615 52 11.9922 52 8.45765 50.1107C5.66681 48.619 3.381 46.3332 1.88926 43.5423C0 40.0078 0 35.3385 0 26Z" fill="#F2F3F7"/>
</svg>
