<svg width="24" height="24" viewBox="0 0 24 24" fill="none" xmlns="http://www.w3.org/2000/svg">
<path fill-rule="evenodd" clip-rule="evenodd" d="M6.00021 10.0002C6.00019 9.21781 5.84751 8.40213 5.46089 7.65172L4.88916 6.54201C4.63622 6.05105 4.03317 5.8581 3.54222 6.11104C3.05126 6.36399 2.85831 6.96704 3.11125 7.45799L3.68298 8.5677C3.89671 8.98255 4.00021 9.47197 4.00021 10.0004C4.00021 10.5526 4.0276 11.1036 4.07532 11.6536C4.24667 13.6282 4.33235 14.6155 5.33676 15.6179C5.47951 15.7604 5.62313 15.8844 5.77051 15.9929C5.29166 16.5245 5.00021 17.2282 5.00021 18C5.00021 19.6569 6.34336 21 8.00021 21C9.65706 21 11.0002 19.6569 11.0002 18C11.0002 17.6495 10.9401 17.3129 10.8296 17.0002C11.61 17.0002 12.3904 17.0002 13.1708 17.0002C13.1676 17.0091 13.174 16.9913 13.1708 17.0002C13.0603 17.3129 13.0002 17.6495 13.0002 18C13.0002 19.6569 14.3434 21 16.0002 21C17.6571 21 19.0002 19.6569 19.0002 18C19.0002 17.2281 18.7087 16.5243 18.2298 15.9927C18.3771 15.8843 18.5206 15.7603 18.6633 15.6179C19.6677 14.6155 19.7534 13.6282 19.9247 11.6536C19.9715 11.1144 20 10.5573 20 10.0002C20 9.44318 19.9715 8.88612 19.9247 8.34692C19.7534 6.37228 19.6677 5.38497 18.6633 4.38253C17.6589 3.38009 16.611 3.29123 14.5153 3.11351C14.3451 3.09907 14.1726 3.08568 13.9985 3.07353C13.0902 3.01019 12.6361 2.97852 12.3181 3.27505C12.0002 3.57159 12.0002 4.04781 12.0002 5.00025V8.00024C12.0002 8.94305 12.0002 9.41445 11.7073 9.70734C11.4144 10.0002 10.943 10.0002 10.0002 10.0002H6.00021ZM9.00021 18C9.00021 18.5523 8.55249 19 8.00021 19C7.44792 19 7.00021 18.5523 7.00021 18C7.00021 17.4477 7.44792 17 8.00021 17C8.55249 17 9.00021 17.4477 9.00021 18ZM16.0002 19C16.5525 19 17.0002 18.5523 17.0002 18C17.0002 17.4477 16.5525 17 16.0002 17C15.4479 17 15.0002 17.4477 15.0002 18C15.0002 18.5523 15.4479 19 16.0002 19Z" fill="#8D969F"/>
</svg>
