<svg width="25" height="12" viewBox="0 0 25 12" fill="none" xmlns="http://www.w3.org/2000/svg">
<g opacity="0.4">
<path fill-rule="evenodd" clip-rule="evenodd" d="M0 4.25C0 2.84987 0 2.1498 0.272484 1.61502C0.512167 1.14462 0.894619 0.762167 1.36502 0.522484C1.8998 0.25 2.59987 0.25 4 0.25H18C19.4001 0.25 20.1002 0.25 20.635 0.522484C21.1054 0.762167 21.4878 1.14462 21.7275 1.61502C22 2.1498 22 2.84987 22 4.25V7.89764C22 9.15868 22 9.7892 21.7777 10.2805C21.5273 10.834 21.084 11.2773 20.5305 11.5277C20.0392 11.75 19.4087 11.75 18.1476 11.75H4C2.59987 11.75 1.8998 11.75 1.36502 11.4775C0.894619 11.2378 0.512167 10.8554 0.272484 10.385C0 9.8502 0 9.15013 0 7.75V4.25ZM4 1.25H18C18.7166 1.25 19.1938 1.25078 19.5606 1.28074C19.9156 1.30975 20.0781 1.36105 20.181 1.41349C20.4632 1.5573 20.6927 1.78677 20.8365 2.06901C20.889 2.17194 20.9403 2.3344 20.9693 2.68944C20.9992 3.05615 21 3.53343 21 4.25V7.89764C21 8.54299 20.9994 8.97281 20.9749 9.30417C20.9512 9.62549 20.9092 9.7743 20.8666 9.86828C20.7164 10.2004 20.4504 10.4664 20.1183 10.6166C20.0243 10.6592 19.8755 10.7012 19.5542 10.7249C19.2228 10.7494 18.793 10.75 18.1476 10.75H4C3.28343 10.75 2.80615 10.7492 2.43944 10.7193C2.0844 10.6903 1.92194 10.639 1.81901 10.5865C1.53677 10.4427 1.3073 10.2132 1.16349 9.93099C1.11105 9.82806 1.05975 9.6656 1.03074 9.31056C1.00078 8.94385 1 8.46657 1 7.75V4.25C1 3.53343 1.00078 3.05615 1.03074 2.68944C1.05975 2.3344 1.11105 2.17194 1.16349 2.06901C1.3073 1.78677 1.53677 1.5573 1.81901 1.41349C1.92194 1.36105 2.0844 1.30975 2.43944 1.28074C2.80615 1.25078 3.28343 1.25 4 1.25Z" fill="black"/>
<path d="M24.5 6.18699C24.5 7.11891 23.8626 7.90196 23 8.12398V4.25C23.8626 4.47202 24.5 5.25507 24.5 6.18699Z" fill="black"/>
</g>
<path fill-rule="evenodd" clip-rule="evenodd" d="M2 2.75C2 2.47386 2.22386 2.25 2.5 2.25H19.5C19.7761 2.25 20 2.47386 20 2.75V9.25C20 9.52614 19.7761 9.75 19.5 9.75H2.5C2.22386 9.75 2 9.52614 2 9.25V2.75Z" fill="black"/>
</svg>
